ply
format ascii 1.0
element vertex 585
property float x
property float y
property float z
element face 1157
property list uchar int vertex_index
end_header
98.97136 185.28563 70.852264
110.19877 152.09256 160.91194
187.61627 126.190285 93.416016
119.79563 170.5127 65.26282
136.60217 115.2124 167.10269
91.9229 146.48013 28.97755
37.490124 117.74351 156.1154
94.28823 131.97844 115.22943
232.86195 70.01553 123.26153
169.84645 126.66506 57.947628
204.67424 105.550415 107.3769
113.807556 126.61099 185.13513
133.4886 150.38634 136.08363
34.240246 142.59537 80.89706
166.12532 98.226456 224.28922
193.14609 80.91224 161.33463
176.73029 96.059975 159.14304
231.6591 102.24994 124.15705
99.59298 182.53305 96.286285
19.080923 86.18708 186.63849
62.50499 175.1717 118.10597
105.85624 172.76794 41.265163
253.18243 58.787884 115.568565
79.844536 190.08904 92.6198
190.65437 143.71686 99.79975
53.2406 159.18004 22.200394
18.411858 149.79498 134.81525
95.47451 136.20074 101.59994
36.686966 206.1759 80.74553
101.82985 165.64496 133.54636
119.842224 149.91592 35.257915
98.59669 138.94943 67.517204
57.8296 147.22383 48.234066
193.40274 104.2556 145.80244
7.425659 117.51277 165.68321
39.63165 132.16725 97.982605
171.2122 76.985435 240.46439
91.74065 141.85953 160.55502
212.92455 110.6094 70.96388
170.46785 134.04715 155.1215
55.52308 182.94537 107.04743
203.66699 56.22205 180.61546
123.89601 133.58757 188.45006
12.883482 87.207924 202.48271
159.11311 112.3012 156.58438
65.52875 198.69662 28.357119
92.58932 187.88559 58.047226
145.19882 125.46403 205.73376
178.78003 56.22552 240.14532
199.27806 89.45676 180.34848
37.462498 157.49673 44.612946
92.218216 187.28456 86.193886
148.90762 147.53697 120.850136
142.70415 117.862114 136.82945
24.587473 153.86157 73.80563
226.75333 94.418236 61.329216
88.004776 140.17067 75.69953
61.092224 188.16185 17.728355
30.564516 167.22162 116.517296
58.95434 140.00659 80.05329
71.41204 184.90082 107.017456
115.62934 162.40645 127.15342
29.989634 181.11055 96.4019
83.85956 183.97595 31.34107
67.528015 132.9832 109.202576
219.6078 41.00197 186.28992
57.79962 204.41888 73.64508
110.75196 138.24802 71.798485
74.34204 195.757 82.074
85.526146 137.50247 89.91398
90.548515 139.61377 57.689396
131.87471 125.99968 200.61905
163.38672 133.54552 70.483444
15.950896 164.00468 70.213425
117.43672 111.3207 172.994
16.812864 128.40807 120.83973
27.88262 121.1616 127.458046
185.20328 129.5917 119.622574
177.54439 134.48952 144.60808
168.9576 96.09233 210.38683
46.948723 170.52141 117.18289
190.13625 124.30934 146.73349
70.88035 168.74231 129.03326
150.2607 140.80128 146.68694
85.85218 191.83041 74.04192
93.81404 172.35219 121.846016
49.360447 131.28821 108.722496
111.034996 129.56488 117.41299
115.877235 174.81123 75.759544
38.26803 175.79358 107.19237
73.46668 140.047 77.99837
82.910774 191.74753 47.373516
99.13695 120.34821 164.88162
54.606976 163.4554 127.6515
105.90119 180.75385 80.07098
106.642426 137.18347 54.917263
45.670868 149.62166 55.628624
189.55463 80.93608 173.4594
143.74069 139.03435 47.725567
190.79906 91.72934 152.54448
144.88472 162.61868 87.42229
207.87961 132.47992 111.21524
114.70853 137.61272 85.6878
46.167835 153.1041 137.30234
160.07692 114.283195 193.01477
176.60138 106.67272 145.69235
135.24962 135.51497 79.96134
32.524506 136.93195 157.46655
28.46374 99.51717 181.8453
72.45221 136.3518 94.15858
190.14403 124.59411 160.50333
139.35982 103.8231 199.81471
27.25111 114.1839 145.25398
98.96881 138.94725 84.64243
142.99315 150.08992 44.311203
211.94594 89.47845 175.40257
192.93889 109.92972 61.770947
35.57667 174.9197 13.100804
20.30215 157.78526 123.09695
134.49783 133.43591 156.33556
80.22455 130.51445 120.11408
71.578545 201.08568 52.77884
219.13466 66.1273 167.4176
11.3518915 135.69519 133.09468
172.46738 132.11308 134.31775
77.85574 160.07907 140.8266
16.683907 148.61223 99.556404
162.1154 118.05302 129.09167
175.23706 125.21145 163.613
158.16708 119.82772 206.47707
169.0412 104.31954 158.53429
198.60724 131.15761 120.04301
74.483925 195.8023 39.04565
188.06287 113.79164 140.68832
163.3576 124.21466 159.6422
162.0761 132.97728 52.887592
32.210117 190.95801 91.7919
109.43743 161.02031 33.462048
97.61901 122.80831 139.04123
69.97621 143.79378 42.363384
105.48179 169.21019 119.06547
8.500221 101.35761 195.60326
114.87803 170.56636 50.538
179.89192 146.85736 94.92092
21.864567 97.55676 196.37523
23.631987 148.22736 86.387024
105.569336 148.20667 31.55449
196.53815 113.20977 107.9418
199.26186 139.68013 106.7968
128.30814 141.05405 177.55875
183.46956 145.97502 106.361
139.77875 131.99709 194.5622
106.26633 142.49992 168.43742
4.682632 95.21055 179.3331
174.91695 88.933945 221.71338
122.573326 172.0265 106.242546
213.30246 111.07482 124.35825
220.62022 66.59986 183.89485
146.66112 94.80318 203.34622
203.04985 106.79665 164.78453
210.43953 94.73154 163.18678
141.66292 153.53333 129.09863
27.550928 166.00087 35.529114
29.669874 148.70436 144.7873
191.011 132.49556 57.71371
73.48785 189.31976 25.94216
122.250244 121.26815 194.58287
224.30821 91.80187 126.07533
121.359474 137.7586 61.77693
179.38164 123.39704 100.30507
102.132095 179.9562 54.751064
148.7081 115.39842 215.4375
64.11671 131.36433 146.46709
202.81898 100.718094 153.18839
190.91875 106.76884 172.67908
122.74884 138.40273 46.651146
72.08796 177.01326 19.146511
112.917015 140.54308 39.69721
85.94446 169.32974 131.77313
168.21397 82.01022 213.22319
79.81682 177.57832 117.93955
127.85207 164.04672 54.57183
40.254818 119.83664 139.63612
104.86844 160.88536 147.52037
155.50072 141.88977 47.820267
134.92241 136.46945 186.03711
135.84254 115.284225 207.84471
147.19977 131.51416 184.55847
222.22974 114.42858 104.30692
59.943615 144.03642 64.05077
115.78202 138.87529 177.73453
110.533485 176.2878 105.136604
16.294846 121.73382 137.77057
53.42407 127.4049 135.24986
125.865814 168.96959 79.78086
210.45102 45.482304 181.51619
5.8914475 111.093056 181.29947
6.1084223 86.31822 191.51642
198.01074 121.11441 96.73698
187.4682 119.17841 56.51117
173.55893 129.77983 116.12928
191.04349 119.2585 119.381676
19.109497 157.33064 85.0117
186.30869 137.38977 66.751434
15.247673 167.83308 82.310936
28.719212 168.76312 23.078766
162.43938 64.563866 231.64867
228.11479 88.3267 107.624084
30.606834 127.29004 110.41662
86.072266 183.26064 103.88919
17.158884 160.40428 110.03114
51.85959 198.71228 17.427914
161.28325 108.81663 216.29843
224.91515 56.502583 176.84526
90.34034 127.26079 130.00542
142.22725 103.1997 214.05551
164.73923 108.34779 147.18515
116.17025 126.18548 125.29332
200.18346 112.263626 121.302895
82.207405 195.34535 61.501854
175.81396 73.14282 221.47908
24.464619 170.75064 103.487526
34.621677 159.54366 129.81499
61.451733 150.75978 29.609516
63.545185 204.51173 40.68986
179.03506 138.43787 115.81875
148.54771 89.552704 216.96967
239.14879 92.260056 107.269005
54.04492 193.21446 96.24089
142.17899 119.63919 127.07888
127.647995 129.90727 145.07886
106.39337 130.28833 176.65654
160.06213 97.31418 199.05057
42.583828 185.06107 100.52163
182.5496 131.16116 154.41766
48.69536 153.57681 37.81933
35.045845 147.90916 69.24861
209.16708 115.030235 98.71811
116.097084 131.37413 107.297554
208.83896 123.19148 120.48142
198.39355 114.51198 152.1276
19.872753 135.84291 105.096115
13.344124 144.05705 117.54984
114.36757 159.78696 140.53734
83.655556 156.1811 21.774218
63.70302 156.38737 137.54842
138.882 124.21268 118.24949
181.21031 123.94146 137.73566
128.81506 168.70367 96.0001
165.05408 140.16887 146.62202
231.37083 106.07588 107.01465
109.80851 176.70218 62.544174
215.49832 50.347885 170.87367
56.993233 205.71925 28.471727
16.497267 162.26343 96.171455
247.4186 81.83198 111.28459
89.611855 122.8638 149.84322
196.52365 134.80527 95.021286
187.49818 95.06566 174.98436
211.35555 79.48068 184.10608
170.86304 147.43484 88.0931
16.576998 139.15727 148.74399
157.32515 86.74493 207.41336
19.338802 93.31779 171.55214
159.07008 77.35949 235.23671
203.7577 120.41688 67.76854
167.6336 140.08301 136.66226
140.835 136.80489 175.90846
169.35602 55.347847 239.57468
102.376656 117.88532 152.18826
33.616028 153.57416 58.28094
169.21169 141.89056 51.51535
42.40754 212.88019 63.98954
219.79845 76.55706 175.60324
179.44612 121.176506 60.457306
182.80234 117.09316 168.80756
246.49599 81.0963 121.98307
158.2112 134.1031 153.51344
214.89793 95.93774 110.72505
134.25264 137.12321 54.27524
47.204926 183.93126 13.103085
119.58164 163.02467 40.551563
206.89732 59.9404 168.23851
155.79774 151.13055 50.824284
96.51824 173.28778 32.67963
58.518684 171.71675 14.77199
244.25508 71.102005 126.606445
107.95434 118.090416 175.39435
42.670162 125.0966 122.70906
165.38264 69.01914 220.38863
152.93661 126.42624 194.61523
130.08482 163.79192 68.856346
228.75658 75.577805 112.92039
169.61237 113.42831 165.26222
145.91837 128.24765 172.89659
58.298584 144.06418 144.09935
47.750656 144.21477 70.21783
235.49428 66.4962 111.36352
215.30832 81.260895 164.27252
15.80537 122.3658 175.19719
177.8128 129.44429 89.54286
206.23549 129.64037 98.93759
152.05472 104.53415 191.30486
206.73866 66.446686 186.8719
69.9666 160.40782 18.464735
99.03212 152.75822 157.0927
198.09209 68.3761 173.58647
66.72383 192.38268 95.93165
216.61215 53.513058 188.03036
58.678764 130.07562 119.129326
75.61909 146.47691 28.020386
215.1677 97.19461 122.8106
72.34935 146.92664 147.55128
84.8286 140.6372 42.21886
197.9368 114.2225 72.66984
186.03435 137.89459 90.64466
190.24953 139.42282 115.150116
136.52657 160.97969 120.3308
194.60986 127.74475 68.46287
27.694462 114.139145 177.14363
8.966879 102.80841 167.01407
129.50926 156.17738 40.995663
156.73593 78.2451 221.0687
99.19691 139.16539 41.564083
223.46341 42.04963 177.72438
202.37651 104.336296 70.05443
202.31723 99.78642 174.39908
177.2688 102.353035 169.00806
169.86617 65.28576 243.09543
181.24443 121.91936 114.60808
215.38554 124.254425 105.77352
17.51398 131.39796 162.25986
93.326416 182.5201 43.399673
178.58899 131.20555 53.42034
185.89177 116.84928 68.99201
175.75815 143.28485 64.8637
182.44559 99.99418 149.3306
174.42554 113.249016 136.82933
180.6545 140.19858 55.959015
129.84038 111.15118 195.12807
80.44404 127.26855 140.51764
84.59179 170.66751 23.466166
220.1543 117.98171 116.67172
96.861664 161.46967 27.699259
19.126545 108.60794 155.72026
203.65431 86.528946 155.84924
42.995586 194.86275 92.986565
248.76138 69.19576 109.73354
122.57841 126.87058 115.65909
182.30234 88.493225 165.65701
102.57622 128.0326 125.2749
39.838326 160.98845 29.337378
140.25507 142.63968 143.29973
216.81723 91.28528 61.59446
81.95475 133.66376 105.543015
124.06759 138.84558 75.9722
195.9416 115.78012 165.34877
155.60832 89.849594 230.19945
118.85848 146.17215 168.63843
165.32747 108.17075 204.53217
23.073257 158.30997 62.231663
75.986694 142.76183 58.80237
12.1145935 120.54791 151.75746
202.87549 106.97961 58.210087
225.5448 89.01703 68.768906
44.225075 142.08719 147.99828
45.81199 138.27588 86.48547
173.9943 59.77153 228.21678
152.83963 118.8241 182.63387
28.861488 106.236084 165.49193
27.786732 137.44069 92.93426
168.5412 151.51227 95.7574
31.52209 124.38957 166.85297
238.35886 60.796165 122.54828
152.26186 113.59893 145.91138
69.38221 130.056 128.57492
205.13396 73.53966 162.89626
198.24834 76.68258 182.24013
123.65281 155.48558 135.57365
60.201244 136.48361 93.52749
243.81389 91.453835 118.02008
161.7602 111.91148 138.20859
131.68753 120.43876 157.40512
89.08837 128.34393 160.31348
171.20847 149.13504 103.83917
238.16405 78.149956 106.80795
116.91671 169.64427 115.783676
6.1766148 190.71077 66.82128
157.61581 145.92593 133.88394
187.812 119.85389 104.676186
198.42033 121.992516 56.939983
126.44487 166.38692 120.25754
47.761696 128.91637 150.86319
174.9607 136.288 71.4573
209.58633 114.73033 59.737286
117.42646 154.25896 153.74886
225.95299 98.45575 103.780075
85.20337 149.9118 152.06421
105.367165 134.09264 109.21227
228.70938 81.20296 124.32919
180.84372 67.89224 234.28226
221.92368 101.447044 70.82344
132.27417 167.58125 110.14502
206.25114 102.80992 118.92955
152.65991 121.13888 154.56154
133.9995 138.74565 69.00393
164.84468 128.34914 112.839645
135.63869 165.36552 82.0244
243.78802 58.328938 113.35412
222.68768 86.999054 116.2847
98.04893 132.59875 168.6268
138.17598 158.46634 49.66149
110.25379 114.07237 161.81773
215.09518 103.333046 102.42524
146.74022 148.84032 136.04016
140.07137 126.25225 163.63039
108.22743 136.60048 95.89026
152.15176 101.73718 223.62938
126.3115 124.82808 124.75859
10.942117 174.01363 71.84317
183.72852 127.66241 72.38302
178.50432 81.0212 231.63371
168.25858 88.66404 234.59796
250.75067 70.21023 118.75752
127.09009 134.51964 87.87044
151.8453 115.35614 133.62239
78.09855 134.4899 153.32309
142.96803 108.32813 184.9955
161.74422 130.57347 88.75319
25.659418 198.55113 84.05146
219.0459 105.34103 60.20268
212.36317 96.07256 70.88999
248.3816 58.13688 124.11027
168.96725 132.72705 85.5613
91.41314 161.25685 144.9149
25.088692 207.16579 77.749214
129.9106 159.16388 128.22322
120.10877 134.07545 96.46942
19.986923 175.26941 91.8154
176.056 139.05528 86.0736
156.45209 144.94028 140.47285
137.2963 138.95335 166.07687
208.3571 98.57463 60.780407
49.144165 202.55048 84.453186
35.062977 211.61029 72.380165
111.06539 177.19153 91.27195
124.14451 151.05907 145.8174
238.18178 83.98365 127.67972
56.48385 209.8005 49.442074
163.54594 138.5726 129.88074
145.47116 160.22 96.473114
127.80877 146.3987 164.36836
138.6528 157.75475 63.322773
153.18764 156.76817 89.56216
50.02548 212.70854 37.387543
35.911934 199.55794 87.49689
236.11783 94.26536 126.552216
71.21613 199.57506 69.46318
223.22356 106.71416 124.769646
97.08322 177.25465 109.79677
130.47937 143.65788 142.05325
170.90974 121.342415 131.17517
109.80719 119.3828 143.86858
139.43787 131.34311 91.11995
61.57854 199.27257 84.64873
172.05367 123.899796 109.18774
119.600296 116.01892 153.3371
238.45163 100.628845 114.4696
110.33796 123.94472 133.53195
120.00384 121.93205 143.61241
229.63387 110.047226 115.353485
166.72604 147.54488 59.019337
147.6771 157.11392 80.74962
130.69925 109.428505 179.02324
161.58105 150.95204 86.01686
119.02178 113.97208 184.93361
144.37218 115.36348 174.14256
120.58354 172.06834 91.98118
137.59076 165.81738 93.15819
173.706 143.95059 111.117
155.17986 149.61247 80.08205
133.75313 121.853905 132.04732
139.40642 158.97 74.544464
125.84492 112.8117 163.41412
148.98497 130.38332 151.22855
152.23628 130.33742 89.57158
151.28279 133.5996 55.168568
137.15288 163.65097 102.38661
173.07634 125.7486 68.683
170.06451 126.395195 95.455086
143.67467 153.03647 119.66834
144.21558 119.90448 148.4885
122.689705 124.59104 134.87067
148.51735 155.9728 58.179928
155.29774 142.60823 74.05959
125.44062 130.6238 105.287636
166.0091 129.26244 127.4183
160.83818 129.42902 62.520065
157.13654 150.58148 63.177254
155.22276 144.47272 126.06962
159.12352 131.55714 122.276436
149.83928 153.43372 101.270004
168.61554 136.79077 114.15194
131.84378 144.48784 41.04336
149.7249 150.16306 127.53567
164.57161 144.03749 109.78086
161.2553 126.61291 96.52901
143.05272 135.94142 63.118595
131.45175 131.84065 98.172676
164.6515 143.74092 68.36539
145.20035 133.19266 84.5976
146.25845 137.7756 75.10108
147.95686 151.2968 70.66191
151.13544 118.62218 126.690125
165.11198 141.10391 81.46389
156.25969 135.19135 81.77984
142.35327 155.94864 104.874725
148.22855 129.01843 97.22266
153.32492 135.10712 67.66653
135.61781 122.26904 123.5262
159.21637 122.63574 123.8619
154.38622 127.47481 103.72608
157.82878 144.97595 108.15902
18.984922 111.244484 188.77524
132.57233 126.26092 114.83564
146.37888 122.215546 120.624435
153.16249 134.97015 117.97437
141.73206 132.2158 147.26056
159.60207 153.65927 95.67049
139.58376 130.3862 99.70991
145.6431 146.65834 114.62614
160.5792 136.05734 112.20128
160.85947 149.99326 103.53126
151.80605 147.45317 105.77191
152.98978 124.00554 119.9838
144.31264 130.65709 108.87545
139.7235 158.80289 112.360306
127.84304 124.3996 150.46086
137.38158 121.39146 143.49753
129.52855 145.01509 154.81807
134.92493 131.53062 143.93715
130.35461 124.33102 140.0321
129.1926 138.19522 149.27637
129.27531 136.29596 142.22182
146.71764 129.00096 103.258545
44.18207 216.15077 46.624714
134.36153 129.15968 107.30362
38.41479 217.01227 54.990154
162.09444 126.000626 104.572395
61.917805 205.57234 61.236576
46.7012 208.36983 73.32857
158.67574 138.6506 123.92204
51.043655 210.6668 60.08076
21.774418 187.58942 86.70262
16.909245 195.93896 79.08096
26.631145 161.50778 49.42034
13.855317 204.91643 72.42668
10.060653 173.02411 49.476315
145.2425 127.25921 114.29895
149.964 140.70172 108.17962
15.864608 179.27411 81.3578
2.9915166 180.40845 53.086163
17.048746 165.66539 55.485847
143.47849 150.5296 108.61061
8.880601 171.83324 60.165134
11.6079 186.97064 74.93644
3.6150782 190.83032 56.27253
9.14672 198.7142 70.5669
6.652729 182.06992 64.152115
2.8372302 195.8541 62.86041
17.99832 211.293 71.34156
32.095135 216.13268 62.881107
25.231247 214.96237 69.14112
48.612087 210.27386 24.889965
152.50307 142.1833 119.751114
145.22443 141.7911 108.767166
157.67648 129.3425 111.03887
155.67235 137.98442 110.53702
138.97023 127.210884 111.92631
148.27498 140.36017 114.637665
150.74387 131.11722 109.43022
153.0043 129.6255 117.30143
18.745718 169.62729 43.014828
43.075287 167.5938 17.02732
148.32918 134.59767 111.75192
3 0 51 84
3 0 46 84
3 0 51 94
3 0 251 94
3 0 46 170
3 0 251 170
3 1 183 305
3 1 395 183
3 1 305 152
3 1 358 152
3 1 395 358
3 2 389 198
3 2 257 198
3 2 300 169
3 2 315 300
3 2 389 169
3 2 257 315
3 3 194 88
3 3 88 251
3 3 142 251
3 3 291 181
3 3 194 291
3 3 181 142
3 4 415 382
3 4 483 382
3 4 473 476
3 4 483 473
3 4 476 415
3 5 244 310
3 5 313 310
3 5 323 313
3 5 146 323
3 5 244 343
3 5 343 146
3 6 107 372
3 6 392 107
3 6 369 372
3 6 182 392
3 6 344 112
3 6 182 112
3 6 344 369
3 7 398 27
3 7 354 27
3 7 350 87
3 7 398 87
3 7 120 214
3 7 350 214
3 7 120 354
3 8 292 297
3 8 399 292
3 8 373 297
3 8 286 373
3 8 447 286
3 8 399 447
3 9 333 274
3 9 488 274
3 9 497 135
3 9 333 135
3 9 488 497
3 10 237 147
3 10 413 237
3 10 218 147
3 10 218 403
3 10 278 403
3 10 278 413
3 11 190 42
3 11 42 166
3 11 475 166
3 11 190 231
3 11 231 287
3 11 287 475
3 12 436 378
3 12 446 378
3 12 161 414
3 12 352 414
3 12 460 446
3 12 161 436
3 12 352 460
3 13 370 145
3 13 54 145
3 13 296 236
3 13 54 236
3 13 366 370
3 13 296 366
3 14 422 154
3 14 79 154
3 14 357 417
3 14 422 357
3 14 212 417
3 14 212 79
3 15 97 306
3 15 376 306
3 15 345 99
3 15 376 345
3 15 99 349
3 15 97 349
3 16 327 130
3 16 336 130
3 16 349 99
3 16 336 99
3 16 349 327
3 17 167 456
3 17 467 456
3 17 458 470
3 17 167 458
3 17 470 467
3 18 51 94
3 18 209 51
3 18 445 94
3 18 445 191
3 18 459 191
3 18 459 209
3 19 108 144
3 19 43 144
3 19 197 43
3 19 153 197
3 19 108 263
3 19 263 153
3 20 180 60
3 20 60 40
3 20 80 40
3 20 82 93
3 20 180 82
3 20 93 80
3 21 332 170
3 21 142 170
3 21 284 137
3 21 281 137
3 21 281 142
3 21 284 332
3 22 347 408
3 22 432 408
3 22 347 423
3 22 423 432
3 23 84 51
3 23 209 51
3 23 307 68
3 23 84 68
3 23 209 60
3 23 60 307
3 24 315 143
3 24 150 143
3 24 257 148
3 24 316 148
3 24 316 150
3 24 315 257
3 25 304 223
3 25 235 223
3 25 285 304
3 25 583 285
3 25 351 235
3 25 583 351
3 26 242 123
3 26 261 123
3 26 163 222
3 26 222 118
3 26 242 118
3 26 163 261
3 27 113 69
3 27 416 113
3 27 354 69
3 27 398 416
3 28 550 444
3 28 435 444
3 28 455 443
3 28 429 455
3 28 443 550
3 28 435 429
3 29 243 183
3 29 434 183
3 29 85 140
3 29 61 140
3 29 61 243
3 29 434 178
3 29 178 85
3 30 177 175
3 30 146 177
3 30 503 175
3 30 281 321
3 30 321 503
3 30 137 281
3 30 146 137
3 31 113 56
3 31 70 56
3 31 113 67
3 31 95 67
3 31 70 95
3 32 235 96
3 32 189 96
3 32 139 223
3 32 361 139
3 32 235 223
3 32 361 189
3 33 99 173
3 33 173 240
3 33 133 240
3 33 99 336
3 33 336 133
3 34 331 299
3 34 299 196
3 34 196 320
3 34 344 320
3 34 331 362
3 34 362 344
3 35 208 86
3 35 379 86
3 35 370 366
3 35 379 366
3 35 208 370
3 36 400 328
3 36 264 328
3 36 400 421
3 36 421 422
3 36 264 422
3 37 383 410
3 37 152 410
3 37 305 397
3 37 397 426
3 37 383 426
3 37 152 305
3 38 325 314
3 38 265 314
3 38 265 394
3 38 430 394
3 38 430 401
3 38 401 431
3 38 431 325
3 39 234 128
3 39 78 234
3 39 134 128
3 39 78 249
3 39 249 277
3 39 277 134
3 40 80 89
3 40 233 89
3 40 228 307
3 40 233 228
3 40 307 60
3 41 195 252
3 41 308 195
3 41 252 282
3 41 306 282
3 41 306 303
3 41 303 308
3 42 151 71
3 42 166 71
3 42 185 151
3 42 149 185
3 42 149 190
3 43 141 144
3 43 197 141
3 44 293 134
3 44 404 134
3 44 374 216
3 44 130 216
3 44 130 293
3 44 374 404
3 45 224 132
3 45 165 132
3 45 57 211
3 45 211 253
3 45 224 253
3 45 165 57
3 46 219 91
3 46 332 91
3 46 219 84
3 46 332 170
3 47 171 129
3 47 290 129
3 47 71 151
3 47 290 151
3 47 171 186
3 47 186 71
3 48 328 268
3 48 268 367
3 48 367 400
3 48 400 328
3 49 115 259
3 49 377 259
3 49 97 258
3 49 258 326
3 49 115 326
3 49 97 377
3 50 270 96
3 50 96 235
3 50 351 235
3 50 555 270
3 50 162 351
3 50 555 162
3 52 530 490
3 52 490 504
3 52 499 504
3 52 530 574
3 52 574 499
3 53 491 374
3 53 374 425
3 53 229 425
3 53 538 491
3 53 229 481
3 53 481 538
3 54 145 202
3 54 73 202
3 54 360 73
3 54 236 360
3 55 353 364
3 55 430 353
3 55 364 401
3 55 401 430
3 56 113 69
3 56 69 90
3 56 361 90
3 56 361 70
3 57 176 165
3 57 280 211
3 57 285 176
3 57 280 285
3 58 221 89
3 58 89 80
3 58 222 80
3 58 210 118
3 58 221 210
3 58 118 222
3 59 90 109
3 59 379 109
3 59 296 189
3 59 366 296
3 59 90 189
3 59 366 379
3 60 209 180
3 61 243 378
3 61 436 378
3 61 386 140
3 61 391 436
3 61 386 391
3 62 553 136
3 62 233 136
3 62 89 221
3 62 438 221
3 62 89 233
3 62 438 553
3 63 132 91
3 63 332 91
3 63 176 165
3 63 132 165
3 63 341 284
3 63 284 332
3 63 341 176
3 64 354 109
3 64 379 109
3 64 354 120
3 64 375 120
3 64 86 309
3 64 375 309
3 64 86 379
3 65 195 308
3 65 324 195
3 65 213 308
3 65 324 213
3 66 464 443
3 66 550 443
3 66 457 464
3 66 549 457
3 66 552 549
3 66 550 552
3 67 102 113
3 67 355 102
3 67 95 168
3 67 168 355
3 68 464 307
3 68 84 457
3 68 457 464
3 69 354 109
3 69 90 109
3 70 323 95
3 70 323 313
3 70 313 361
3 71 339 166
3 71 339 186
3 72 488 497
3 72 518 497
3 72 509 393
3 72 494 509
3 72 393 488
3 72 518 494
3 73 562 360
3 73 419 204
3 73 202 204
3 73 564 562
3 73 419 564
3 74 287 412
3 74 483 412
3 74 473 475
3 74 483 473
3 74 475 287
3 75 192 76
3 75 76 208
3 75 241 208
3 75 242 123
3 75 192 123
3 75 241 242
3 76 288 182
3 76 112 182
3 76 112 192
3 76 208 288
3 77 131 201
3 77 329 201
3 77 131 316
3 77 225 316
3 77 200 329
3 77 225 200
3 78 266 124
3 78 247 124
3 78 81 234
3 78 81 247
3 78 266 249
3 79 359 212
3 79 232 262
3 79 359 232
3 79 179 262
3 79 179 154
3 80 222 93
3 81 110 234
3 81 110 240
3 81 133 240
3 81 133 247
3 82 245 93
3 82 180 178
3 82 178 125
3 82 125 245
3 83 440 249
3 83 249 277
3 83 484 277
3 83 414 352
3 83 527 352
3 83 414 440
3 83 527 484
3 84 457 219
3 85 459 140
3 85 180 178
3 85 459 180
3 86 288 208
3 86 288 309
3 87 217 350
3 87 238 398
3 87 217 348
3 87 348 238
3 88 477 194
3 88 445 94
3 88 477 445
3 88 94 251
3 90 189 361
3 91 121 132
3 91 121 219
3 92 287 231
3 92 410 231
3 92 383 256
3 92 256 269
3 92 412 269
3 92 287 412
3 92 383 410
3 93 245 103
3 93 222 103
3 95 175 177
3 95 168 175
3 95 177 323
3 96 236 270
3 96 189 296
3 96 236 296
3 97 349 258
3 97 377 306
3 98 114 184
3 98 486 184
3 98 503 279
3 98 507 279
3 98 507 486
3 98 503 114
3 99 345 173
3 100 472 407
3 100 478 407
3 100 472 453
3 100 453 450
3 100 450 478
3 101 148 131
3 101 131 239
3 101 330 239
3 101 301 148
3 101 330 301
3 102 113 416
3 102 437 416
3 102 424 355
3 102 437 424
3 103 245 295
3 103 365 295
3 103 163 222
3 103 365 163
3 104 302 232
3 104 359 232
3 104 129 290
3 104 368 290
3 104 368 302
3 104 129 359
3 105 336 130
3 105 216 130
3 105 337 133
3 105 133 336
3 105 216 337
3 106 405 355
3 106 355 424
3 106 424 463
3 106 510 463
3 106 511 405
3 106 510 511
3 107 261 163
3 107 163 365
3 107 392 365
3 107 261 331
3 107 331 372
3 108 523 144
3 108 369 319
3 108 523 319
3 108 369 263
3 110 234 128
3 110 275 128
3 110 356 240
3 110 356 275
3 111 215 158
3 111 302 158
3 111 215 186
3 111 339 186
3 111 427 302
3 111 427 339
3 112 362 192
3 112 362 344
3 114 184 283
3 114 493 283
3 114 321 411
3 114 503 321
3 114 493 411
3 115 326 160
3 115 298 160
3 115 273 259
3 115 273 298
3 116 334 199
3 116 390 199
3 116 325 314
3 116 363 325
3 116 314 334
3 116 363 390
3 117 583 205
3 117 211 280
3 117 280 583
3 118 242 210
3 119 441 415
3 119 539 441
3 119 382 415
3 119 230 537
3 119 542 230
3 119 382 537
3 119 539 542
3 120 340 214
3 120 375 340
3 121 224 132
3 121 457 219
3 121 224 448
3 121 549 448
3 121 457 549
3 122 213 252
3 122 157 213
3 122 282 252
3 122 157 273
3 122 298 273
3 122 376 282
3 122 298 376
3 123 192 261
3 124 449 266
3 124 461 247
3 124 496 449
3 124 461 496
3 125 434 178
3 125 312 245
3 125 397 312
3 125 397 434
3 126 370 145
3 126 202 145
3 126 242 210
3 126 254 210
3 126 241 242
3 126 370 241
3 126 202 254
3 127 425 381
3 127 381 461
3 127 461 496
3 127 496 520
3 127 520 513
3 127 513 425
3 128 275 293
3 128 293 134
3 129 212 171
3 129 212 359
3 130 293 327
3 131 316 148
3 131 239 201
3 133 337 247
3 134 404 277
3 135 333 271
3 135 271 184
3 135 486 184
3 135 486 497
3 136 346 455
3 136 429 455
3 136 553 429
3 136 233 346
3 137 343 146
3 137 343 284
3 138 340 214
3 138 350 214
3 138 256 269
3 138 462 269
3 138 468 350
3 138 256 340
3 138 468 462
3 139 223 310
3 139 310 313
3 139 361 313
3 140 191 386
3 140 191 459
3 141 523 144
3 141 197 153
3 141 196 153
3 141 523 196
3 142 281 181
3 142 170 251
3 143 315 439
3 143 260 439
3 143 384 371
3 143 260 371
3 143 150 384
3 146 323 177
3 147 389 198
3 147 237 198
3 147 218 201
3 147 389 201
3 148 257 301
3 149 267 185
3 149 358 190
3 149 441 267
3 149 358 451
3 149 451 441
3 150 316 225
3 150 479 225
3 150 479 384
3 151 187 185
3 151 187 290
3 152 231 190
3 152 358 190
3 152 231 410
3 153 320 196
3 153 320 263
3 154 220 179
3 154 220 421
3 154 421 422
3 155 191 386
3 155 391 386
3 155 477 248
3 155 248 402
3 155 391 402
3 155 191 477
3 156 403 218
3 156 218 239
3 156 239 342
3 156 458 342
3 156 311 403
3 156 458 311
3 157 259 273
3 157 259 303
3 157 303 308
3 157 213 308
3 158 262 226
3 158 215 226
3 158 302 232
3 158 232 262
3 159 356 240
3 159 173 240
3 159 173 160
3 159 326 160
3 159 326 174
3 159 356 174
3 160 345 173
3 160 345 298
3 161 504 414
3 161 436 317
3 161 490 317
3 161 490 504
3 162 351 205
3 162 582 205
3 162 582 555
3 164 390 199
3 164 333 199
3 164 203 318
3 164 390 318
3 164 333 338
3 164 203 338
3 166 475 339
3 167 399 409
3 167 447 399
3 167 409 311
3 167 458 311
3 167 447 456
3 168 279 175
3 168 405 279
3 168 355 405
3 169 489 300
3 169 329 389
3 169 489 465
3 169 465 329
3 171 417 215
3 171 215 186
3 171 212 417
3 172 392 295
3 172 312 295
3 172 426 340
3 172 375 340
3 172 426 312
3 172 375 193
3 172 193 392
3 174 327 275
3 174 356 275
3 174 327 258
3 174 258 326
3 175 279 503
3 176 285 304
3 176 304 341
3 179 289 220
3 179 322 262
3 179 289 322
3 180 459 209
3 181 281 321
3 181 411 321
3 181 452 291
3 181 411 452
3 182 193 288
3 182 193 392
3 183 395 243
3 183 305 434
3 184 271 283
3 185 267 187
3 187 290 368
3 187 368 294
3 187 294 267
3 188 330 237
3 188 413 237
3 188 396 250
3 188 470 250
3 188 342 330
3 188 470 342
3 188 413 396
3 191 477 445
3 192 261 362
3 193 288 309
3 193 375 309
3 194 407 291
3 194 248 407
3 194 477 248
3 195 324 252
3 196 299 523
3 198 237 301
3 198 257 301
3 199 333 274
3 199 274 334
3 200 465 329
3 200 465 406
3 200 502 406
3 200 502 225
3 201 218 239
3 201 389 329
3 202 204 254
3 203 420 318
3 203 338 335
3 203 393 335
3 203 393 420
3 204 419 560
3 204 438 560
3 204 438 254
3 205 351 583
3 206 322 264
3 206 328 264
3 206 328 268
3 206 367 268
3 206 322 289
3 206 367 289
3 207 396 227
3 207 227 385
3 207 292 385
3 207 278 396
3 207 292 409
3 207 409 278
3 208 370 241
3 210 254 221
3 211 573 253
3 213 324 252
3 215 226 417
3 216 374 381
3 216 337 381
3 217 418 348
3 217 350 468
3 217 492 468
3 217 418 492
3 220 367 289
3 220 367 400
3 220 400 421
3 221 438 254
3 223 304 310
3 224 448 454
3 224 253 454
3 225 502 479
3 226 262 322
3 226 357 322
3 226 357 417
3 227 396 250
3 227 467 250
3 227 467 380
3 227 255 380
3 227 255 385
3 228 464 307
3 228 233 346
3 228 443 346
3 228 443 464
3 229 519 481
3 229 425 513
3 229 525 513
3 229 246 519
3 229 246 525
3 230 469 537
3 230 540 541
3 230 543 540
3 230 469 541
3 230 543 542
3 236 360 270
3 237 301 330
3 238 495 348
3 238 416 398
3 238 437 416
3 238 437 495
3 239 330 342
3 243 446 395
3 243 378 446
3 244 304 310
3 244 341 304
3 244 341 343
3 245 295 312
3 246 524 519
3 246 558 525
3 246 578 558
3 246 578 524
3 247 461 337
3 248 487 478
3 248 407 478
3 248 487 402
3 249 266 440
3 250 467 470
3 253 573 454
3 255 380 276
3 255 423 276
3 255 423 347
3 255 347 385
3 256 426 340
3 256 383 426
3 258 349 327
3 259 377 303
3 260 474 371
3 260 439 514
3 260 514 474
3 261 362 331
3 263 369 320
3 264 322 357
3 264 357 422
3 265 318 314
3 265 390 318
3 265 390 394
3 266 388 440
3 266 388 449
3 267 294 441
3 269 466 412
3 269 462 466
3 270 360 555
3 271 471 283
3 271 333 338
3 271 471 338
3 272 552 547
3 272 571 547
3 272 444 550
3 272 552 550
3 272 571 444
3 274 488 334
3 275 293 327
3 276 423 286
3 276 447 286
3 276 447 380
3 277 484 404
3 278 413 396
3 278 311 409
3 278 311 403
3 279 507 405
3 280 583 285
3 282 376 306
3 283 498 471
3 283 493 498
3 284 343 341
3 286 432 373
3 286 423 432
3 291 482 452
3 291 407 482
3 292 297 385
3 292 409 399
3 294 476 368
3 294 415 441
3 294 476 415
3 295 392 365
3 297 408 347
3 297 385 347
3 297 408 373
3 298 376 345
3 299 372 319
3 299 523 319
3 299 372 331
3 300 439 315
3 300 433 439
3 300 489 433
3 302 368 427
3 303 377 306
3 305 434 397
3 312 397 426
3 314 334 318
3 317 436 391
3 317 391 402
3 317 536 402
3 317 490 536
3 318 334 420
3 319 369 372
3 320 369 344
3 325 442 363
3 325 442 431
3 334 488 420
3 335 338 471
3 335 509 471
3 335 393 509
3 337 381 461
3 339 473 427
3 339 475 473
3 342 458 470
3 346 443 455
3 348 524 418
3 348 524 495
3 352 540 527
3 352 460 540
3 353 431 364
3 353 442 430
3 353 431 442
3 358 451 395
3 360 555 562
3 363 390 394
3 363 394 430
3 363 430 442
3 364 401 431
3 368 476 427
3 371 532 384
3 371 528 474
3 371 528 532
3 373 408 432
3 374 404 491
3 374 425 381
3 380 447 456
3 380 456 467
3 382 483 466
3 382 537 466
3 384 479 505
3 384 532 505
3 387 565 567
3 387 569 567
3 387 566 568
3 387 565 568
3 387 569 566
3 388 414 440
3 388 499 504
3 388 449 499
3 388 414 504
3 393 420 488
3 395 539 446
3 395 539 451
3 402 487 536
3 404 484 491
3 405 507 511
3 406 548 465
3 406 531 502
3 406 576 531
3 406 548 576
3 407 482 472
3 411 493 452
3 412 483 466
3 418 524 519
3 418 481 519
3 418 481 492
3 419 565 560
3 419 568 564
3 419 565 568
3 424 508 437
3 424 463 508
3 427 476 473
3 428 515 433
3 428 433 489
3 428 506 489
3 428 485 515
3 428 506 485
3 429 553 554
3 429 435 554
3 433 514 439
3 433 515 514
3 435 556 570
3 435 572 570
3 435 444 572
3 435 554 556
3 437 495 508
3 438 553 560
3 441 539 451
3 444 572 571
3 446 539 460
3 448 549 552
3 448 545 552
3 448 454 545
3 449 496 500
3 449 551 500
3 449 551 499
3 450 453 501
3 450 516 501
3 450 478 487
3 450 487 516
3 452 512 482
3 452 512 493
3 453 480 472
3 453 474 528
3 453 480 474
3 453 501 528
3 454 573 545
3 460 542 539
3 460 540 543
3 460 543 542
3 462 469 466
3 462 469 468
3 463 485 510
3 463 508 529
3 463 529 517
3 463 517 485
3 465 548 489
3 466 537 469
3 468 469 492
3 469 492 541
3 471 498 509
3 472 512 482
3 472 480 512
3 474 480 514
3 479 505 502
3 480 494 514
3 480 494 512
3 481 538 541
3 481 541 492
3 484 527 491
3 485 506 517
3 485 510 515
3 486 518 497
3 486 518 507
3 487 516 536
3 489 548 506
3 490 563 530
3 490 563 536
3 491 527 538
3 493 512 498
3 494 518 511
3 494 515 511
3 494 498 512
3 494 514 515
3 494 498 509
3 495 546 524
3 495 546 508
3 496 500 520
3 499 574 551
3 500 520 534
3 500 581 534
3 500 551 526
3 500 526 581
3 501 532 528
3 501 563 516
3 501 532 533
3 501 563 533
3 502 505 531
3 505 531 522
3 505 532 522
3 506 548 521
3 506 517 521
3 507 511 518
3 508 546 529
3 510 511 515
3 513 534 525
3 513 520 534
3 516 563 536
3 517 544 521
3 517 544 529
3 521 580 544
3 521 576 548
3 521 580 576
3 522 577 531
3 522 533 532
3 522 577 559
3 522 559 533
3 524 578 546
3 525 534 558
3 526 551 574
3 526 579 574
3 526 581 584
3 526 584 579
3 527 538 540
3 529 535 544
3 529 546 535
3 530 563 575
3 530 575 579
3 530 579 574
3 531 576 577
3 533 575 563
3 533 575 559
3 534 581 558
3 535 546 578
3 535 558 578
3 535 580 544
3 535 584 558
3 535 584 580
3 538 540 541
3 545 552 547
3 545 547 571
3 553 565 554
3 553 560 565
3 554 556 567
3 554 567 565
3 555 582 562
3 556 569 567
3 557 561 564
3 557 582 561
3 557 564 562
3 557 562 582
3 558 584 581
3 559 584 575
3 559 584 577
3 561 568 564
3 561 569 566
3 561 566 568
3 570 572 571
3 575 584 579
3 576 577 580
3 577 580 584
